<svg width="1461" height="238" viewBox="0 0 1461 238" fill="none" xmlns="http://www.w3.org/2000/svg">
<path d="M38.4 186C27.6 186 19.3333 183.267 13.6 177.8C7.86667 172.333 5 164.533 5 154.4C5 144.4 7.86667 136.667 13.6 131.2C19.3333 125.733 27.6 123 38.4 123H115.2V118.2C115.2 110.067 111.2 106 103.2 106H18.4V83H110.8C122.933 83 131.533 85.8 136.6 91.4C141.667 96.8667 144.2 104.6 144.2 114.6V186H38.4ZM43.6 163H115.2V146H43.6C41.0667 146 39.0667 146.8 37.6 148.4C36.2667 149.867 35.6 151.867 35.6 154.4C35.6 156.933 36.2667 159 37.6 160.6C39.0667 162.2 41.0667 163 43.6 163ZM199.273 186C187.54 186 178.94 183.067 173.473 177.2C168.14 171.333 165.473 163.733 165.473 154.4V83H194.473V151C194.473 159 198.473 163 206.473 163H248.073C256.073 163 260.073 159 260.073 151V83H289.073V154.4C289.073 163.733 286.34 171.333 280.873 177.2C275.54 183.067 267.007 186 255.273 186H199.273ZM437.028 186H408.028V43H437.028V186ZM432.028 186H363.028C345.161 186 331.228 181.6 321.228 172.8C311.228 164 306.228 151.267 306.228 134.6C306.228 117.8 311.228 105 321.228 96.2C331.228 87.4 345.161 83 363.028 83H430.028V106H363.028C354.361 106 347.695 108.4 343.028 113.2C338.495 117.867 336.228 125 336.228 134.6C336.228 144.067 338.495 151.2 343.028 156C347.695 160.667 354.361 163 363.028 163H432.028V186ZM482.456 231V208H542.856C550.856 208 554.856 203.933 554.856 195.8V186H493.056C481.323 186 472.723 183.067 467.256 177.2C461.923 171.333 459.256 163.733 459.256 154.4V83H488.256V151C488.256 159 492.256 163 500.256 163H553.856V83H583.856V199.4C583.856 208.867 581.123 216.467 575.656 222.2C570.19 228.067 561.656 231 550.056 231H482.456ZM659.736 186C648.136 186 639.603 183.133 634.136 177.4C628.669 171.533 625.936 163.867 625.936 154.4V106H596.136V83H625.936V51.4H654.936V83H697.736V106H654.936V150.8C654.936 158.933 658.936 163 666.936 163H703.336V186H659.736ZM771.245 187C753.379 187 739.445 182.6 729.445 173.8C719.445 164.867 714.445 151.8 714.445 134.6C714.445 117.267 719.445 104.2 729.445 95.4C739.445 86.4667 753.379 82 771.245 82H808.245C826.112 82 840.045 86.4667 850.045 95.4C860.045 104.2 865.045 117.267 865.045 134.6C865.045 151.8 860.045 164.867 850.045 173.8C840.045 182.6 826.112 187 808.245 187H771.245ZM771.245 164H808.245C816.912 164 823.512 161.6 828.045 156.8C832.712 152 835.045 144.6 835.045 134.6C835.045 124.467 832.712 117 828.045 112.2C823.512 107.4 816.912 105 808.245 105H771.245C762.579 105 755.912 107.4 751.245 112.2C746.712 117 744.445 124.467 744.445 134.6C744.445 144.6 746.712 152 751.245 156.8C755.912 161.6 762.579 164 771.245 164ZM886.294 186V43H1006.09C1020.89 43 1032.36 46.7333 1040.49 54.2C1048.76 61.6667 1052.89 73 1052.89 88.2C1052.89 101.133 1049.89 111.267 1043.89 118.6C1037.89 125.933 1029.36 130.533 1018.29 132.4L1051.29 186H1014.89L984.294 133.4H918.294V186H886.294ZM1002.29 69H918.294V107.2L1002.29 107.4C1008.16 107.4 1012.63 105.933 1015.69 103C1018.89 100.067 1020.49 95.1333 1020.49 88.2C1020.49 81.1333 1018.89 76.2 1015.69 73.4C1012.63 70.4667 1008.16 69 1002.29 69ZM1074.12 186V83H1103.12V186H1074.12ZM1073.92 66V43.4H1103.32V66H1073.92ZM1158.1 186C1146.36 186 1137.76 183.067 1132.3 177.2C1126.96 171.333 1124.3 163.733 1124.3 154.4V83H1153.3V151C1153.3 159 1157.3 163 1165.3 163H1206.9C1214.9 163 1218.9 159 1218.9 151V83H1247.9V154.4C1247.9 163.733 1245.16 171.333 1239.7 177.2C1234.36 183.067 1225.83 186 1214.1 186H1158.1ZM1269.05 186V83H1402.45C1414.18 83 1422.78 85.9333 1428.25 91.8C1433.72 97.5333 1436.45 105.133 1436.45 114.6V186H1407.45V118.2C1407.45 110.067 1403.32 106 1395.05 106H1367.25V186H1338.25V106H1298.05V186H1269.05Z" fill="#F5F5F5"/>
</svg>
